<?xml version="1.0" encoding="UTF-8" standalone="no"?>
<!-- Created with Inkscape (http://www.inkscape.org/) -->

<svg
   width="210mm"
   height="209.23872mm"
   viewBox="0 0 210 209.23872"
   version="1.1"
   id="svg1"
   xmlns="http://www.w3.org/2000/svg"
   xmlns:svg="http://www.w3.org/2000/svg">
  <defs
     id="defs1" />
  <g
     id="layer1"
     transform="translate(-0.37595079,-56.50619)">
    <g
       id="g96"
       transform="matrix(1.74521,0,0,1.74521,-48.354068,-90.661153)">
      <path
         style="fill:#f59e0b;fill-opacity:1;stroke:#000000;stroke-width:0;stroke-dasharray:none"
         d="m 126.82511,98.709863 a 59.946487,59.946487 0 0 0 -81.344926,3.174607 59.946487,59.946487 0 0 0 -2.7e-4,84.77709 59.946487,59.946487 0 0 0 81.186066,3.30994 L 111.641,174.94653 a 38.806845,38.806845 0 0 1 -51.212868,-3.23319 38.806845,38.806845 0 0 1 3e-6,-54.88091 38.806845,38.806845 0 0 1 51.378415,-3.10401 z"
         id="path95" />
      <path
         style="fill:none;fill-opacity:1;stroke:#111827;stroke-width:1;stroke-dasharray:none;stroke-opacity:1"
         d="m 133.03684,183.48441 -15.00385,-15.00387 a 38.806845,38.806845 0 0 0 -0.10082,-48.80209 l 14.99957,-14.99957 a 59.946487,59.946487 0 0 1 0.1051,78.80553 z"
         id="path96" />
    </g>
  </g>
</svg>
